<?xml version="1.0" standalone="no"?>
<!DOCTYPE svg PUBLIC "-//W3C//DTD SVG 20010904//EN"
 "http://www.w3.org/TR/2001/REC-SVG-20010904/DTD/svg10.dtd">
<svg version="1.0" xmlns="http://www.w3.org/2000/svg"
 width="451.000000pt" height="418.000000pt" viewBox="0 0 451.000000 418.000000"
 preserveAspectRatio="xMidYMid meet">

<g transform="translate(0.000000,418.000000) scale(0.100000,-0.100000)"
fill="#000000" stroke="none">
<path d="M2072 4030 c-89 -24 -213 -87 -278 -143 -60 -51 -124 -121 -124 -135
0 -5 14 -39 30 -74 17 -36 37 -96 45 -134 17 -80 20 -249 5 -239 -5 3 -10 21
-10 40 0 50 -42 173 -84 248 -62 111 -157 167 -284 167 -118 0 -218 -52 -280
-146 -41 -61 -55 -112 -54 -197 0 -56 6 -81 31 -131 16 -34 42 -72 56 -86 24
-22 31 -23 133 -21 199 5 355 -55 495 -188 42 -41 75 -76 72 -79 -3 -3 -15 4
-28 15 -12 12 -56 40 -98 62 -188 101 -417 109 -611 19 -64 -29 -69 -34 -87
-82 -102 -273 -2 -579 240 -736 58 -37 112 -61 186 -80 l43 -11 2 -201 3 -201
87 -33 c246 -95 422 -127 703 -128 276 0 447 29 698 122 l97 36 0 143 0 143
-27 -5 c-291 -51 -606 -42 -868 26 -87 22 -207 60 -203 64 2 3 41 -2 85 -10
45 -7 153 -19 240 -25 317 -22 740 31 896 113 76 40 159 129 188 204 33 82 34
236 1 307 -27 60 -27 60 3 74 39 18 121 99 150 147 62 107 71 262 21 372 -72
156 -208 243 -382 243 -192 0 -423 -168 -515 -374 -11 -25 -22 -46 -24 -46
-11 0 30 132 61 195 55 112 145 214 252 285 l23 15 -39 76 c-98 194 -273 337
-478 389 -103 27 -270 26 -372 0z"/>
<path d="M1980 1087 c-40 -8 -65 -29 -250 -211 -227 -224 -315 -295 -438 -354
-109 -53 -148 -59 -207 -33 -37 17 -50 29 -67 67 -42 96 -6 208 105 330 44 49
54 64 32 50 -120 -75 -213 -175 -241 -259 -20 -61 -15 -157 11 -212 29 -59 97
-121 161 -144 73 -28 193 -28 300 -1 139 36 448 199 704 372 110 75 140 118
140 203 0 132 -115 221 -250 192z"/>
<path d="M2468 1090 c-129 -24 -197 -172 -135 -290 18 -34 45 -59 117 -108
256 -173 565 -336 704 -372 107 -27 227 -27 300 1 64 23 132 85 161 144 26 55
31 151 11 212 -28 84 -121 184 -241 259 -22 14 -12 -1 32 -50 111 -122 147
-234 105 -330 -17 -38 -30 -50 -67 -67 -59 -26 -98 -20 -207 33 -123 59 -211
130 -438 353 -164 162 -212 204 -240 209 -19 4 -42 9 -50 10 -8 2 -32 0 -52
-4z"/>
</g>
</svg>
